<svg width="96" height="96" viewBox="0 0 96 96" fill="none" xmlns="http://www.w3.org/2000/svg">
<g filter="url(#filter0_d_102_58)">
<path d="M48 90C71.196 90 90 71.196 90 48C90 24.804 71.196 6 48 6C24.804 6 6 24.804 6 48C6 71.196 24.804 90 48 90Z" fill="black"/>
</g>
<path d="M48 90C71.196 90 90 71.196 90 48C90 24.804 71.196 6 48 6C24.804 6 6 24.804 6 48C6 71.196 24.804 90 48 90Z" stroke="#BABABA" stroke-opacity="0.5" stroke-width="2"/>
<path d="M48 90C71.196 90 90 71.196 90 48C90 24.804 71.196 6 48 6C24.804 6 6 24.804 6 48C6 71.196 24.804 90 48 90Z" fill="url(#paint0_linear_102_58)"/>
<g filter="url(#filter1_d_102_58)">
<path d="M9 48.0255C9 65.2942 20.1637 79.8795 35.6663 85.0507C37.6163 85.3927 38.3475 84.222 38.3475 83.1982C38.3475 82.2705 38.2987 79.1977 38.2987 75.9292C28.5 77.733 25.965 73.5375 25.185 71.343C24.7463 70.221 22.845 66.7575 21.1875 65.8305C19.8225 65.0985 17.8725 63.294 21.1388 63.2452C24.21 63.1965 26.4037 66.0742 27.135 67.245C30.645 73.1475 36.2513 71.49 38.4938 70.4647C38.835 67.9282 39.8587 66.2197 40.98 65.2447C32.3025 64.2697 23.235 60.9037 23.235 45.9772C23.235 41.7323 24.7463 38.22 27.2325 35.4885C26.8425 34.5135 25.4775 30.513 27.6225 25.146C27.6225 25.146 30.8888 24.1222 38.3475 29.1465C41.4675 28.269 44.7825 27.8295 48.0975 27.8295C51.4125 27.8295 54.7275 28.269 57.8475 29.1465C65.3062 24.0735 68.5725 25.1467 68.5725 25.1467C70.7175 30.5122 69.3525 34.512 68.9625 35.4877C71.4487 38.2192 72.96 41.6827 72.96 45.9757C72.96 60.9517 63.8438 64.2682 55.1663 65.2447C56.58 66.4642 57.7988 68.8057 57.7988 72.4642C57.7988 77.6842 57.75 81.879 57.75 83.1967C57.75 84.2205 58.4812 85.4392 60.4312 85.0492C75.8363 79.8802 87 65.2462 87 48.0262C87 26.463 69.5475 9 48 9C26.4525 9 9 26.4637 9 48.0255Z" fill="url(#paint1_linear_102_58)"/>
</g>
<g filter="url(#filter2_d_102_58)">
<path d="M9 48.0255C9 65.2942 20.1638 79.8795 35.6663 85.0507C37.6163 85.3927 38.3475 84.222 38.3475 83.1982C38.3475 82.2705 38.2987 79.1977 38.2987 75.9292C28.5 77.733 25.965 73.5375 25.185 71.343C24.7463 70.221 22.845 66.7575 21.1875 65.8305C19.8225 65.0985 17.8725 63.294 21.1387 63.2452C24.21 63.1965 26.4038 66.0742 27.135 67.245C30.645 73.1475 36.2513 71.49 38.4938 70.4647C38.835 67.9282 39.8587 66.2197 40.98 65.2447C32.3025 64.2697 23.235 60.9037 23.235 45.9772C23.235 41.7322 24.7463 38.22 27.2325 35.4885C26.8425 34.5135 25.4775 30.513 27.6225 25.146C27.6225 25.146 30.8888 24.1222 38.3475 29.1465C41.4675 28.269 44.7825 27.8295 48.0975 27.8295C51.4125 27.8295 54.7275 28.269 57.8475 29.1465C65.3062 24.0735 68.5725 25.1467 68.5725 25.1467C70.7175 30.5122 69.3525 34.512 68.9625 35.4877C71.4487 38.2192 72.96 41.6827 72.96 45.9757C72.96 60.9517 63.8438 64.2682 55.1663 65.2447C56.58 66.4642 57.7988 68.8057 57.7988 72.4642C57.7988 77.6842 57.75 81.879 57.75 83.1967C57.75 84.2205 58.4812 85.4392 60.4312 85.0492C75.8362 79.8802 87 65.2462 87 48.0262C87 26.463 69.5475 9 48 9C26.4525 9 9 26.4637 9 48.0255Z" fill="url(#paint2_linear_102_58)"/>
<path d="M21.1313 62.7453C20.3023 62.7577 19.6712 62.8768 19.2804 63.1639C19.065 63.3221 18.9131 63.5391 18.8664 63.8052C18.8221 64.0578 18.883 64.2949 18.9714 64.4888C19.1429 64.8656 19.4814 65.2194 19.8225 65.5069C20.1734 65.8027 20.5787 66.071 20.9471 66.2689C21.2897 66.4614 21.6744 66.8036 22.0752 67.2565C22.4729 67.7059 22.8653 68.2402 23.2254 68.7882C23.946 69.8847 24.5108 70.9949 24.7166 71.5182C25.1324 72.6845 26.0231 74.3975 28.1152 75.5715C30.1222 76.6978 33.1628 77.2875 37.7993 76.5239C37.8017 77.9476 37.8124 79.3103 37.8231 80.4462C37.8269 80.8426 37.8306 81.2107 37.834 81.5441C37.8417 82.301 37.8475 82.8784 37.8475 83.1982C37.8475 83.6004 37.7033 83.9995 37.4066 84.2624C37.1256 84.5113 36.6321 84.7047 35.7883 84.5643C20.5024 79.4484 9.5 65.059 9.5 48.0255C9.5 26.7396 26.7289 9.5 48 9.5C69.271 9.5 86.5 26.7388 86.5 48.0262C86.5 65.0139 75.4941 79.4531 60.303 84.5649C59.462 84.7262 58.9728 84.5326 58.6939 84.2815C58.3957 84.0132 58.25 83.6012 58.25 83.1967C58.25 82.758 58.2554 81.999 58.2627 80.9864C58.2663 80.4832 58.2703 79.9174 58.2744 79.2971C58.2866 77.4306 58.2988 75.0758 58.2988 72.4642C58.2988 69.3146 57.4201 67.0548 56.2274 65.6178C60.2823 65.0731 64.4258 63.9396 67.6386 61.243C71.142 58.3026 73.46 53.5731 73.46 45.9757C73.46 41.6726 71.982 38.1648 69.5375 35.3808C70.0375 33.9879 71.0775 30.0657 69.0368 24.9611L68.9502 24.7446L68.7286 24.6717L68.5725 25.1467C68.7286 24.6717 68.7281 24.6716 68.7276 24.6714L68.7265 24.6711L68.7241 24.6703L68.7184 24.6685L68.7034 24.664C68.6917 24.6606 68.6768 24.6564 68.6586 24.6517C68.6221 24.6423 68.5725 24.6308 68.5096 24.6191C68.3836 24.5955 68.2046 24.5708 67.9708 24.559C67.503 24.5353 66.8187 24.5636 65.9047 24.7548C64.1086 25.1305 61.4295 26.134 57.7587 28.6029C54.6582 27.7539 51.3768 27.3295 48.0975 27.3295C44.8178 27.3295 41.5359 27.754 38.435 28.6033C34.7644 26.1578 32.0863 25.1549 30.292 24.7731C29.3789 24.5788 28.6956 24.5457 28.2287 24.565C27.9955 24.5746 27.8168 24.5973 27.6912 24.6193C27.6284 24.6303 27.579 24.6411 27.5427 24.6499C27.5245 24.6544 27.5096 24.6583 27.498 24.6615L27.483 24.6658L27.4774 24.6675L27.475 24.6682L27.474 24.6686C27.4734 24.6687 27.473 24.6689 27.6225 25.146L27.473 24.6689L27.2463 24.7399L27.1582 24.9604C25.1176 30.0662 26.1574 33.989 26.6574 35.3817C24.2125 38.1687 22.735 41.7216 22.735 45.9772C22.735 53.5495 25.0405 58.2785 28.5309 61.2249C31.7334 63.9282 35.8674 65.0726 39.923 65.6183C39.0572 66.6663 38.3468 68.1589 38.0389 70.1192C36.9319 70.5925 35.1888 71.1255 33.3355 70.9549C31.3708 70.774 29.2362 69.8001 27.5648 66.9894L27.5649 66.9894L27.5591 66.9801C27.1763 66.3672 26.4127 65.3091 25.3359 64.4049C24.2602 63.5016 22.8307 62.7185 21.1313 62.7453ZM21.1313 62.7453L21.1388 63.2452M21.1313 62.7453C21.1311 62.7453 21.131 62.7453 21.1308 62.7453L21.1388 63.2452M21.1388 63.2452C17.8725 63.294 19.8225 65.0985 21.1875 65.8305L38.4938 70.4647C36.2513 71.49 30.645 73.1475 27.135 67.245C26.4037 66.0742 24.21 63.1965 21.1388 63.2452Z" stroke="black"/>
</g>
<g filter="url(#filter3_i_102_58)">
<path d="M9 48.0255C9 65.2942 20.1637 79.8795 35.6663 85.0507C37.6163 85.3927 38.3475 84.222 38.3475 83.1982C38.3475 82.2705 38.2987 79.1977 38.2987 75.9292C28.5 77.733 25.965 73.5375 25.185 71.343C24.7463 70.221 22.845 66.7575 21.1875 65.8305C19.8225 65.0985 17.8725 63.294 21.1388 63.2452C24.21 63.1965 26.4037 66.0742 27.135 67.245C30.645 73.1475 36.2513 71.49 38.4938 70.4647C38.835 67.9282 39.8587 66.2197 40.98 65.2447C32.3025 64.2697 23.235 60.9037 23.235 45.9772C23.235 41.7323 24.7463 38.22 27.2325 35.4885C26.8425 34.5135 25.4775 30.513 27.6225 25.146C27.6225 25.146 30.8888 24.1222 38.3475 29.1465C41.4675 28.269 44.7825 27.8295 48.0975 27.8295C51.4125 27.8295 54.7275 28.269 57.8475 29.1465C65.3062 24.0735 68.5725 25.1467 68.5725 25.1467C70.7175 30.5122 69.3525 34.512 68.9625 35.4877C71.4487 38.2192 72.96 41.6827 72.96 45.9757C72.96 60.9517 63.8438 64.2682 55.1663 65.2447C56.58 66.4642 57.7988 68.8057 57.7988 72.4642C57.7988 77.6842 57.75 81.879 57.75 83.1967C57.75 84.2205 58.4812 85.4392 60.4312 85.0492C75.8363 79.8802 87 65.2462 87 48.0262C87 26.463 69.5475 9 48 9C26.4525 9 9 26.4637 9 48.0255Z" fill="url(#paint3_linear_102_58)"/>
</g>
<defs>
<filter id="filter0_d_102_58" x="2" y="4" width="92" height="92" filterUnits="userSpaceOnUse" color-interpolation-filters="sRGB">
<feFlood flood-opacity="0" result="BackgroundImageFix"/>
<feColorMatrix in="SourceAlpha" type="matrix" values="0 0 0 0 0 0 0 0 0 0 0 0 0 0 0 0 0 0 127 0" result="hardAlpha"/>
<feOffset dy="2"/>
<feGaussianBlur stdDeviation="2"/>
<feColorMatrix type="matrix" values="0 0 0 0 0 0 0 0 0 0 0 0 0 0 0 0 0 0 0.240942 0"/>
<feBlend mode="normal" in2="BackgroundImageFix" result="effect1_dropShadow_102_58"/>
<feBlend mode="normal" in="SourceGraphic" in2="effect1_dropShadow_102_58" result="shape"/>
</filter>
<filter id="filter1_d_102_58" x="5" y="6" width="86" height="84.1238" filterUnits="userSpaceOnUse" color-interpolation-filters="sRGB">
<feFlood flood-opacity="0" result="BackgroundImageFix"/>
<feColorMatrix in="SourceAlpha" type="matrix" values="0 0 0 0 0 0 0 0 0 0 0 0 0 0 0 0 0 0 127 0" result="hardAlpha"/>
<feOffset dy="1"/>
<feGaussianBlur stdDeviation="2"/>
<feColorMatrix type="matrix" values="0 0 0 0 1 0 0 0 0 1 0 0 0 0 1 0 0 0 0.529297 0"/>
<feBlend mode="normal" in2="BackgroundImageFix" result="effect1_dropShadow_102_58"/>
<feBlend mode="normal" in="SourceGraphic" in2="effect1_dropShadow_102_58" result="shape"/>
</filter>
<filter id="filter2_d_102_58" x="5" y="9" width="86" height="84.1238" filterUnits="userSpaceOnUse" color-interpolation-filters="sRGB">
<feFlood flood-opacity="0" result="BackgroundImageFix"/>
<feColorMatrix in="SourceAlpha" type="matrix" values="0 0 0 0 0 0 0 0 0 0 0 0 0 0 0 0 0 0 127 0" result="hardAlpha"/>
<feOffset dy="4"/>
<feGaussianBlur stdDeviation="2"/>
<feComposite in2="hardAlpha" operator="out"/>
<feColorMatrix type="matrix" values="0 0 0 0 0 0 0 0 0 0 0 0 0 0 0 0 0 0 0.25 0"/>
<feBlend mode="normal" in2="BackgroundImageFix" result="effect1_dropShadow_102_58"/>
<feBlend mode="normal" in="SourceGraphic" in2="effect1_dropShadow_102_58" result="shape"/>
</filter>
<filter id="filter3_i_102_58" x="9" y="9" width="78" height="76.1238" filterUnits="userSpaceOnUse" color-interpolation-filters="sRGB">
<feFlood flood-opacity="0" result="BackgroundImageFix"/>
<feBlend mode="normal" in="SourceGraphic" in2="BackgroundImageFix" result="shape"/>
<feColorMatrix in="SourceAlpha" type="matrix" values="0 0 0 0 0 0 0 0 0 0 0 0 0 0 0 0 0 0 127 0" result="hardAlpha"/>
<feOffset/>
<feGaussianBlur stdDeviation="1"/>
<feComposite in2="hardAlpha" operator="arithmetic" k2="-1" k3="1"/>
<feColorMatrix type="matrix" values="0 0 0 0 0.258824 0 0 0 0 0.137255 0 0 0 0 0.431373 0 0 0 0.70355 0"/>
<feBlend mode="normal" in2="shape" result="effect1_innerShadow_102_58"/>
</filter>
<linearGradient id="paint0_linear_102_58" x1="48" y1="6" x2="48" y2="90" gradientUnits="userSpaceOnUse">
<stop stop-color="#FEFEFE"/>
<stop offset="1" stop-color="#E0E0E0"/>
</linearGradient>
<linearGradient id="paint1_linear_102_58" x1="48" y1="85.1237" x2="48" y2="9" gradientUnits="userSpaceOnUse">
<stop stop-color="#0F2330"/>
<stop offset="1" stop-color="#0F2330"/>
</linearGradient>
<linearGradient id="paint2_linear_102_58" x1="48" y1="85.1237" x2="48" y2="9" gradientUnits="userSpaceOnUse">
<stop stop-color="#0F2330"/>
<stop offset="1" stop-color="#0F2330"/>
</linearGradient>
<linearGradient id="paint3_linear_102_58" x1="48" y1="85.1237" x2="48" y2="9" gradientUnits="userSpaceOnUse">
<stop stop-color="#0F2330"/>
<stop offset="1" stop-color="#0F2330"/>
</linearGradient>
</defs>
</svg>
